<?xml version="1.0" encoding="utf-8"?>
<!-- Generator: Adobe Illustrator 16.0.3, SVG Export Plug-In . SVG Version: 6.00 Build 0)  -->
<!DOCTYPE svg PUBLIC "-//W3C//DTD SVG 1.1//EN" "http://www.w3.org/Graphics/SVG/1.1/DTD/svg11.dtd">
<svg version="1.1" id="Capa_1" xmlns="http://www.w3.org/2000/svg" xmlns:xlink="http://www.w3.org/1999/xlink" x="0px" y="0px"
	 width="600px" height="600px" viewBox="0 0 600 600" enable-background="new 0 0 600 600" xml:space="preserve">
<g>
	<g>
		<path fill="#580E0E" d="M572.428,163.613c-13.888,37.741-20.988,77.286-30.83,116.099
			c-10.463,41.265-20.749,82.574-30.627,123.978c-2.904,12.188-9.827,16.892-21.914,16.869
			c-93.519-0.154-187.039-0.207-280.56,0.035c-13.976,0.039-18.946-7.415-21.925-19.65
			c-20.133-82.702-40.664-165.312-61.147-247.927c-4.239-17.091-10.446-33.884-12.733-51.214
			c-1.803-13.663-7.506-16.3-19.897-16.823c-23.145-0.981-47.009,5.448-69.367-5.486c-5-22.708,3.643-29.349,26.621-27.148
			c26.322,2.521,53.073,0.583,79.637,0.583c14.123,17.455,15.319,39.25,19.262,59.878c3.277,17.13,10.325,23.646,29.273,23.478
			c119.947-1.055,239.906-0.523,359.861-0.549c12.484-0.004,25.26-1.202,34.346,10.169
			C572.428,151.805,572.428,157.711,572.428,163.613z M482.563,169.272c-8.104,0-16.212,0-24.317,0
			c-32.437,0-32.437,0-32.134,32.934c0.009,0.735,0.107,1.491-0.014,2.209c-2.246,13.334,2.648,18.112,16.693,17.312
			c22.038-1.25,44.225-0.995,66.293-0.052c11.019,0.471,15.24-3.805,18.104-13.762c11.132-38.723,11.414-38.641-29.147-38.641
			C492.881,169.272,487.721,169.272,482.563,169.272z M218.787,169.281c-13.946,0-27.894-0.187-41.835,0.091
			c-5.329,0.104-13.704-1.885-12.093,7.644c2.309,13.654,3.859,28.294,10.178,40.141c5.243,9.836,18.681,3.368,28.376,3.995
			c14.62,0.947,29.537-1.25,43.98,0.601c20.885,2.676,24.703-5.837,24.943-25.138c0.261-21.099-3.541-31.943-27.17-27.598
			C236.646,170.587,227.597,169.268,218.787,169.281z M348.77,221.42c11.009,0,22.019,0.134,33.023-0.056
			c5.554-0.095,11.034,1.15,13.123-7.514c7.925-32.864-0.666-44.62-33.98-44.62c-11.008,0-22.148,1.098-32.992-0.238
			c-19.698-2.426-25.515,4.047-26.051,24.792c-0.617,23.85,7.123,31.234,29.284,27.78
			C336.909,220.668,342.897,221.429,348.77,221.42z M348.962,252.818c-46.043,0-46.294,0-46.019,23.365
			c0.396,33.725-5.072,28.588,29.018,29.055c16.905,0.232,33.817,0.004,50.729,0.053c6.179,0.018,10.65-0.277,12.237-8.644
			c6.755-35.605,0.551-43.829-34.938-43.829C356.314,252.818,352.637,252.818,348.962,252.818z M348.891,336.619
			c-48.697,0.009-48.266-0.014-46.298,38.818c0.531,10.52,3.724,14.176,14.169,13.896c21.332-0.574,42.691-0.138,64.039-0.188
			c6.529-0.019,12.389,0.912,14.137-9.051c6.375-36.31,0.979-43.535-35.005-43.479C356.251,336.619,352.572,336.615,348.891,336.619
			z M512.579,252.818c-16.243,0-32.966,0-49.688,0c-41.107,0-41.075-0.004-36.807,41.321c0.515,4.985-0.774,11.013,7.034,10.981
			c22.077-0.077,45.95,4.771,65.647-2.166c14.981-5.279,9.28-30.183,14.639-45.804C513.61,256.55,513.161,255.72,512.579,252.818z
			 M184.758,252.832c8.226,52.45,8.226,52.45,50.693,52.45c39.925,0,40.809-1.375,36.386-41.533
			c-0.962-8.751-4.17-11.116-12.206-11.025C234.754,253.013,209.872,252.832,184.758,252.832z M452.489,389.165
			c4.487,0,7.476,0.38,10.327-0.078c6.756-1.085,16.707,4.056,19.588-4.708c4.729-14.385,7.109-29.596,9.677-44.6
			c0.556-3.252-4.235-3.047-6.911-3.064c-16.821-0.111-33.643-0.068-50.464-0.057c-3.798,0.005-7.958,0.558-8.033,5.224
			c-0.234,14.593-2.916,30.122,1.222,43.466C430.64,394.193,445.092,387.146,452.489,389.165z M239.709,336.619
			c-36.753-0.004-36.76,0-28.327,35.264c0.684,2.858,1.729,5.643,2.315,8.521c0.975,4.8,3.543,7.281,8.49,8.688
			c36.479,10.368,50.301-0.303,49.659-37.369c-0.19-10.904-2.134-16.846-14.454-15.229
			C251.591,337.255,245.609,336.624,239.709,336.619z"/>
		<path fill="#5C1313" d="M227.089,557.653c-38.208-27.836-48.54-59.56-30.218-92.79c13.979-25.358,35.629-36.085,61.431-30.442
			c22.658,4.959,41.816,28.385,44.292,54.196c3.127,32.579-15.81,52.358-40.084,69.036
			C250.702,557.653,238.895,557.653,227.089,557.653z M271.623,494.078c-2.229-15.232-11.242-25.155-27.544-24.182
			c-15.057,0.902-24.316,11.158-24.096,26.243c0.223,15.314,10.409,24.956,25.248,25.014
			C261.023,521.214,270.818,511.827,271.623,494.078z"/>
		<path fill="#5C1313" d="M435.178,557.653c-39.633-27.416-53.48-61.244-26.883-101.438c10.909-16.484,26.169-22.894,44.724-22.548
			c18.379,0.346,34.278,6.239,43.693,23.802c22.554,42.073,15.135,70.744-26.115,100.185
			C458.791,557.653,446.983,557.653,435.178,557.653z M452.833,469.204c-16.41,2.093-26.502,10.87-26.212,27.213
			c0.271,15.384,10.418,24.775,25.46,24.788c14.866,0.013,25.656-9.105,26.164-24.343
			C478.781,480.718,468.424,471.785,452.833,469.204z"/>
	</g>
</g>
</svg>
