<?xml version="1.0" encoding="utf-8"?>
<!-- Generator: Adobe Illustrator 16.0.3, SVG Export Plug-In . SVG Version: 6.00 Build 0)  -->
<!DOCTYPE svg PUBLIC "-//W3C//DTD SVG 1.1//EN" "http://www.w3.org/Graphics/SVG/1.1/DTD/svg11.dtd">
<svg version="1.1" id="Capa_1" xmlns="http://www.w3.org/2000/svg" xmlns:xlink="http://www.w3.org/1999/xlink" x="0px" y="0px"
	 width="600px" height="600px" viewBox="0 0 600 600" enable-background="new 0 0 600 600" xml:space="preserve">
<g>
	<g>
		<path fill-rule="evenodd" clip-rule="evenodd" fill="#FDFCFC" d="M435.178,557.653c-57.557,0-115.113,0-172.669,0
			c24.275-16.677,43.21-36.457,40.084-69.036c-2.476-25.812-21.634-49.237-44.292-54.196c-25.801-5.643-47.452,5.084-61.431,30.442
			c-18.321,33.231-7.99,64.954,30.218,92.79c-62.518,0-125.049-0.631-187.549,0.458c-14.936,0.26-16.417-4.729-16.382-17.45
			c0.417-153.723,0.27-307.446,0.27-461.169c22.358,10.934,46.222,4.505,69.367,5.486c12.392,0.523,18.094,3.161,19.897,16.823
			c2.287,17.33,8.494,34.123,12.733,51.214c20.483,82.616,41.014,165.225,61.147,247.927c2.979,12.236,7.949,19.69,21.925,19.651
			c93.521-0.242,187.041-0.19,280.56-0.035c12.087,0.021,19.009-4.683,21.914-16.87c9.878-41.403,20.164-82.712,30.627-123.977
			c9.841-38.813,16.942-78.357,30.83-116.099c0,126.182-0.256,252.363,0.376,378.544c0.067,13.213-2.588,16.474-15.89,15.885
			c-28.722-1.267-57.539-0.389-86.317-0.389c41.25-29.439,48.669-58.11,26.115-100.184c-9.415-17.563-25.315-23.456-43.693-23.802
			c-18.555-0.346-33.814,6.063-44.724,22.548C381.696,496.409,395.545,530.237,435.178,557.653z"/>
		<path fill-rule="evenodd" clip-rule="evenodd" fill="#580E0E" d="M572.428,163.613c-13.888,37.741-20.989,77.286-30.83,116.099
			c-10.463,41.265-20.749,82.574-30.627,123.977c-2.905,12.188-9.827,16.892-21.914,16.87c-93.519-0.155-187.039-0.207-280.56,0.035
			c-13.976,0.039-18.946-7.415-21.925-19.651c-20.133-82.702-40.664-165.311-61.147-247.927
			c-4.239-17.091-10.446-33.884-12.733-51.214c-1.803-13.663-7.506-16.3-19.897-16.823c-23.145-0.981-47.009,5.448-69.367-5.486
			c-5-22.708,3.643-29.349,26.621-27.148c26.322,2.521,53.073,0.583,79.637,0.583c14.123,17.455,15.319,39.25,19.262,59.878
			c3.277,17.13,10.325,23.646,29.273,23.478c119.947-1.055,239.906-0.523,359.861-0.549c12.485-0.004,25.26-1.202,34.346,10.169
			C572.428,151.805,572.428,157.711,572.428,163.613z M482.563,169.272c-8.104,0-16.212,0-24.318,0
			c-32.436,0-32.436,0-32.134,32.934c0.009,0.735,0.108,1.491-0.013,2.209c-2.246,13.334,2.648,18.112,16.693,17.312
			c22.038-1.25,44.225-0.995,66.293-0.052c11.019,0.471,15.24-3.805,18.103-13.762c11.132-38.723,11.415-38.641-29.147-38.641
			C492.881,169.272,487.721,169.272,482.563,169.272z M218.787,169.281c-13.946,0-27.894-0.186-41.835,0.091
			c-5.329,0.104-13.704-1.885-12.093,7.644c2.309,13.654,3.859,28.294,10.178,40.141c5.243,9.836,18.681,3.368,28.376,3.995
			c14.62,0.947,29.537-1.25,43.98,0.601c20.885,2.676,24.703-5.837,24.943-25.138c0.261-21.099-3.541-31.943-27.17-27.598
			C236.646,170.587,227.597,169.268,218.787,169.281z M348.77,221.42c11.008,0,22.018,0.134,33.023-0.056
			c5.554-0.095,11.034,1.15,13.123-7.514c7.925-32.864-0.666-44.62-33.98-44.62c-11.008,0-22.149,1.098-32.993-0.238
			c-19.698-2.426-25.514,4.047-26.05,24.792c-0.617,23.85,7.123,31.234,29.284,27.78C336.909,220.668,342.897,221.429,348.77,221.42
			z M348.962,252.818c-46.043,0-46.294,0-46.019,23.365c0.397,33.725-5.072,28.588,29.018,29.055
			c16.905,0.233,33.817,0.004,50.728,0.053c6.179,0.017,10.651-0.277,12.238-8.644c6.755-35.605,0.551-43.829-34.938-43.829
			C356.314,252.818,352.637,252.818,348.962,252.818z M348.891,336.619c-48.697,0.009-48.266-0.013-46.298,38.818
			c0.531,10.52,3.723,14.177,14.169,13.896c21.332-0.574,42.691-0.138,64.039-0.189c6.529-0.018,12.388,0.912,14.137-9.05
			c6.375-36.31,0.979-43.535-35.005-43.479C356.251,336.619,352.572,336.615,348.891,336.619z M512.579,252.818
			c-16.243,0-32.966,0-49.688,0c-41.108,0-41.076-0.004-36.807,41.321c0.515,4.985-0.774,11.013,7.034,10.981
			c22.077-0.077,45.95,4.77,65.648-2.166c14.981-5.279,9.28-30.183,14.638-45.804C513.61,256.55,513.161,255.72,512.579,252.818z
			 M184.758,252.832c8.226,52.45,8.226,52.45,50.693,52.45c39.925,0,40.809-1.375,36.386-41.533
			c-0.962-8.751-4.17-11.116-12.206-11.025C234.754,253.013,209.872,252.832,184.758,252.832z M452.489,389.165
			c4.488,0,7.476,0.38,10.327-0.078c6.756-1.085,16.707,4.056,19.588-4.708c4.73-14.385,7.11-29.596,9.677-44.599
			c0.556-3.252-4.235-3.048-6.911-3.065c-16.821-0.112-33.643-0.069-50.464-0.057c-3.798,0.005-7.958,0.558-8.033,5.224
			c-0.235,14.592-2.916,30.122,1.222,43.465C430.64,394.193,445.092,387.146,452.489,389.165z M239.709,336.619
			c-36.753-0.004-36.76,0-28.327,35.264c0.684,2.858,1.729,5.643,2.315,8.522c0.975,4.799,3.543,7.281,8.49,8.687
			c36.479,10.368,50.301-0.303,49.659-37.37c-0.19-10.904-2.134-16.845-14.454-15.228
			C251.591,337.255,245.609,336.624,239.709,336.619z"/>
		<path fill-rule="evenodd" clip-rule="evenodd" fill="#FBF9F9" d="M572.428,145.903c-9.086-11.371-21.86-10.174-34.346-10.169
			c-119.955,0.026-239.914-0.506-359.861,0.549c-18.948,0.168-25.996-6.347-29.273-23.478c-3.943-20.628-5.139-42.424-19.262-59.878
			c142.415,0,284.831,0.225,427.244-0.376c13.213-0.056,16.563,2.581,15.883,15.894C571.496,94.201,572.428,120.078,572.428,145.903
			z"/>
		<path fill-rule="evenodd" clip-rule="evenodd" fill="#5C1313" d="M227.089,557.653c-38.208-27.836-48.54-59.559-30.218-92.79
			c13.979-25.358,35.629-36.085,61.431-30.442c22.658,4.959,41.816,28.385,44.292,54.196c3.126,32.579-15.81,52.359-40.084,69.036
			C250.702,557.653,238.895,557.653,227.089,557.653z M271.623,494.078c-2.229-15.232-11.242-25.155-27.544-24.182
			c-15.057,0.903-24.316,11.159-24.096,26.244c0.223,15.314,10.409,24.956,25.248,25.013
			C261.023,521.214,270.818,511.827,271.623,494.078z"/>
		<path fill-rule="evenodd" clip-rule="evenodd" fill="#5C1313" d="M435.178,557.653c-39.633-27.416-53.481-61.244-26.883-101.438
			c10.909-16.485,26.169-22.894,44.724-22.548c18.378,0.346,34.278,6.239,43.693,23.802c22.554,42.073,15.135,70.744-26.115,100.184
			C458.791,557.653,446.983,557.653,435.178,557.653z M452.833,469.204c-16.41,2.093-26.502,10.87-26.212,27.213
			c0.271,15.384,10.418,24.775,25.46,24.788c14.866,0.013,25.656-9.105,26.164-24.343
			C478.781,480.718,468.424,471.785,452.833,469.204z"/>
		<path fill-rule="evenodd" clip-rule="evenodd" fill="#F7F4F4" d="M482.563,169.272c5.158,0,10.318,0,15.477,0
			c40.563,0,40.279-0.082,29.147,38.641c-2.862,9.958-7.084,14.233-18.103,13.762c-22.068-0.943-44.255-1.198-66.293,0.052
			c-14.045,0.8-18.939-3.978-16.693-17.312c0.121-0.718,0.021-1.474,0.013-2.209c-0.302-32.934-0.302-32.934,32.134-32.934
			C466.351,169.272,474.458,169.272,482.563,169.272z"/>
		<path fill-rule="evenodd" clip-rule="evenodd" fill="#F7F4F4" d="M218.787,169.272c8.81-0.004,17.859,1.314,26.379-0.255
			c23.629-4.345,27.431,6.499,27.17,27.598c-0.24,19.301-4.058,27.814-24.943,25.138c-14.443-1.851-29.36,0.346-43.98-0.601
			c-9.696-0.626-23.134,5.841-28.376-3.995c-6.319-11.847-7.869-26.487-10.178-40.141c-1.61-9.529,6.764-7.541,12.093-7.644
			C190.893,169.095,204.841,169.281,218.787,169.272z"/>
		<path fill-rule="evenodd" clip-rule="evenodd" fill="#F5F1F1" d="M348.77,221.424c-5.872,0.004-11.86-0.756-17.593,0.139
			c-22.161,3.455-29.901-3.93-29.284-27.78c0.536-20.745,6.352-27.217,26.05-24.792c10.844,1.336,21.985,0.238,32.993,0.238
			c33.314,0,41.905,11.756,33.98,44.62c-2.089,8.665-7.569,7.419-13.123,7.514C370.787,221.554,359.777,221.42,348.77,221.424z"/>
		<path fill-rule="evenodd" clip-rule="evenodd" fill="#F7F4F4" d="M348.962,252.818c3.675,0,7.353,0,11.027,0
			c35.488,0,41.692,8.224,34.938,43.829c-1.587,8.366-6.06,8.66-12.238,8.644c-16.91-0.049-33.822,0.181-50.728-0.053
			c-34.09-0.467-28.62,4.67-29.018-29.055C302.668,252.818,302.919,252.818,348.962,252.818z"/>
		<path fill-rule="evenodd" clip-rule="evenodd" fill="#F7F4F4" d="M348.891,336.615c3.682,0,7.36,0.004,11.042,0
			c35.984-0.057,41.38,7.169,35.005,43.479c-1.749,9.962-7.607,9.032-14.137,9.05c-21.348,0.052-42.707-0.385-64.039,0.189
			c-10.446,0.281-13.638-3.376-14.169-13.896C300.625,336.606,300.193,336.628,348.891,336.615z"/>
		<path fill-rule="evenodd" clip-rule="evenodd" fill="#F7F4F4" d="M512.579,252.818c0.582,2.901,1.031,3.731,0.826,4.333
			c-5.357,15.621,0.344,40.525-14.638,45.804c-19.698,6.936-43.571,2.089-65.648,2.166c-7.809,0.031-6.52-5.996-7.034-10.981
			c-4.27-41.326-4.302-41.321,36.807-41.321C479.613,252.818,496.336,252.818,512.579,252.818z"/>
		<path fill-rule="evenodd" clip-rule="evenodd" fill="#F7F4F4" d="M184.758,252.832c25.114,0,49.997,0.182,74.873-0.108
			c8.035-0.091,11.244,2.274,12.206,11.025c4.423,40.158,3.539,41.533-36.386,41.533
			C192.984,305.281,192.984,305.281,184.758,252.832z"/>
		<path fill-rule="evenodd" clip-rule="evenodd" fill="#F7F4F4" d="M452.489,389.165c-7.397-2.02-21.85,5.028-24.595-3.818
			c-4.138-13.343-1.457-28.873-1.222-43.465c0.075-4.666,4.235-5.219,8.033-5.224c16.821-0.013,33.643-0.056,50.464,0.057
			c2.676,0.018,7.467-0.187,6.911,3.065c-2.566,15.003-4.946,30.214-9.677,44.599c-2.881,8.764-12.832,3.623-19.588,4.708
			C459.965,389.545,456.978,389.165,452.489,389.165z"/>
		<path fill-rule="evenodd" clip-rule="evenodd" fill="#F7F4F4" d="M239.709,336.619c5.899,0.005,11.881,0.636,17.684-0.125
			c12.32-1.617,14.264,4.323,14.454,15.228c0.642,37.067-13.181,47.738-49.659,37.37c-4.946-1.405-7.515-3.888-8.49-8.687
			c-0.586-2.88-1.632-5.664-2.315-8.522C202.95,336.619,202.956,336.615,239.709,336.619z"/>
		<path fill-rule="evenodd" clip-rule="evenodd" fill="#F5F1F1" d="M271.623,494.078c-0.804,17.749-10.6,27.136-26.392,27.075
			c-14.839-0.057-25.025-9.698-25.248-25.013c-0.221-15.085,9.039-25.341,24.096-26.244
			C260.381,468.923,269.394,478.846,271.623,494.078z"/>
		<path fill-rule="evenodd" clip-rule="evenodd" fill="#F5F1F1" d="M452.833,469.204c15.591,2.581,25.948,11.514,25.412,27.658
			c-0.508,15.237-11.298,24.355-26.164,24.343c-15.042-0.013-25.189-9.404-25.46-24.788
			C426.331,480.074,436.423,471.297,452.833,469.204z"/>
	</g>
</g>
</svg>
