<?xml version="1.0" encoding="utf-8"?>
<!-- Generator: Adobe Illustrator 16.0.3, SVG Export Plug-In . SVG Version: 6.00 Build 0)  -->
<!DOCTYPE svg PUBLIC "-//W3C//DTD SVG 1.1//EN" "http://www.w3.org/Graphics/SVG/1.1/DTD/svg11.dtd">
<svg version="1.1" xmlns="http://www.w3.org/2000/svg" xmlns:xlink="http://www.w3.org/1999/xlink" x="0px" y="0px" width="600px"
	 height="600px" viewBox="0 0 600 600" enable-background="new 0 0 600 600" xml:space="preserve">
<g id="Capa_2">
</g>
<g id="Capa_1">
	<ellipse fill="#FF2254" cx="297.5" cy="301" rx="299.5" ry="300"/>
	<g>
		<path fill="none" stroke="#FFFFFF" stroke-width="16" d="M193.46,172.189c0.154-1.339,0.336-2.69,0.547-4.053
			c8.924-57.722,61.377-104.485,121.299-93.463c9.98,1.835,28.911,12.095,37.323,18.597c32.486,25.113,38.112,58.846,42.433,97.499
			c2.5,22.364-4.394,48.298-14.33,67.992c-7.604,15.075-20.98,26.447-28.448,41.015c-5.238,10.218-2.356,21.794,2.307,31.617
			c11.873,25.013,27.14,29.576,52.268,37.839c15.548,5.109,31.495,8.33,46.89,13.774c15.37,5.438,24.487,7.918,30.372,24.003
			c4.641,12.69,6.659,28.808,4.817,42.307c-11.789,1.544-24.626,0.205-36.512,0.209c-29.772,0.008-59.545,0.012-89.316,0.008
			c-35.575-0.006-71.15-0.002-106.725,0c-30.853,0.002-61.704-0.002-92.557-0.002c-14.805,0-29.609-0.019-44.416,0.006
			c-3.325-12.259-8.636-26.021-3.398-38.462c5.014-11.905,17.616-18.492,29.234-22.486c16.05-5.513,30.697-13.144,46.408-19.477
			c20.5-8.263,48.123-22.563,53.323-46.351c3.954-18.101-11.61-33.779-22.988-45.617c-13.872-14.432-17.112-26.142-21.723-45.413
			C195.374,211.287,191.047,193.146,193.46,172.189z"/>
	</g>
</g>
</svg>
