<?xml version="1.0" encoding="utf-8"?>
<!-- Generator: Adobe Illustrator 16.0.3, SVG Export Plug-In . SVG Version: 6.00 Build 0)  -->
<!DOCTYPE svg PUBLIC "-//W3C//DTD SVG 1.1//EN" "http://www.w3.org/Graphics/SVG/1.1/DTD/svg11.dtd">
<svg version="1.1" id="Capa_1" xmlns="http://www.w3.org/2000/svg" xmlns:xlink="http://www.w3.org/1999/xlink" x="0px" y="0px"
	 width="344.118px" height="600px" viewBox="-10 0 344.118 600" enable-background="new -10 0 344.118 600" xml:space="preserve">
<g>
	<g>
		<path fill="#F3851F" d="M93.556,510.324c2.071-11.964,1.674-24.866,6.609-35.715c28.23-62.052,37.959-111.914-56.998-135.033
			c-45.361-11.063-50.039-46.532-1.666-70.668c29.896-14.934,61.149-27.567,93.891-42.157c-5.394-9.761-12.25-19.836-16.756-30.741
			c-13.66-33.027-44.935-72.312-15.473-100.508c25.905-24.809,71.344-4.916,102.989,11.477
			c35.93,18.592,48.975,10.617,61.146-23.494c10.423-29.196,31.47-55.179,47.815-82.588c5.314,0,10.623,0,15.939,0
			c0.141,177.323,0.881,354.645-0.359,531.953c-0.145,22.009,14.23,48.919-14.863,66.254
			c-12.438-18.207-30.043-35.058-36.293-54.902c-16.191-51.449-38.583-71.187-95.768-36.356
			C159.638,522.529,124.192,526.173,93.556,510.324z"/>
	</g>
</g>
</svg>
