<?xml version="1.0" encoding="utf-8"?>
<!-- Generator: Adobe Illustrator 16.0.3, SVG Export Plug-In . SVG Version: 6.00 Build 0)  -->
<!DOCTYPE svg PUBLIC "-//W3C//DTD SVG 1.1//EN" "http://www.w3.org/Graphics/SVG/1.1/DTD/svg11.dtd">
<svg version="1.1" id="Capa_1" xmlns="http://www.w3.org/2000/svg" xmlns:xlink="http://www.w3.org/1999/xlink" x="0px" y="0px"
	 width="308px" height="600px" viewBox="0 0 308 600" enable-background="new 0 0 308 600" xml:space="preserve">
<g>
	<g>
		<path fill="#F3851F" d="M224.224,89.864c-1.887,11.873-1.524,24.68-6.027,35.444c-25.715,61.585-34.579,111.071,51.94,134.021
			c41.329,10.977,45.593,46.18,1.518,70.138c-27.231,14.821-55.712,27.346-85.55,41.84c4.914,9.688,11.164,19.687,15.271,30.511
			c12.438,32.774,40.939,71.767,14.098,99.751c-23.604,24.623-65.01,4.878-93.846-11.391
			c-32.729-18.469-44.622-10.523-55.705,23.319c-9.495,28.974-28.671,54.76-43.565,81.966c-4.843,0-9.68,0-14.524,0
			C7.707,419.474,7.034,243.484,8.16,67.512C8.295,45.669-4.805,18.961,21.704,1.757c11.332,18.07,27.375,34.792,33.068,54.493
			c14.75,51.06,35.154,70.633,87.256,36.083C164.017,77.753,196.311,74.123,224.224,89.864z"/>
	</g>
</g>
</svg>
