<?xml version="1.0" encoding="utf-8"?>
<!-- Generator: Adobe Illustrator 16.0.3, SVG Export Plug-In . SVG Version: 6.00 Build 0)  -->
<!DOCTYPE svg PUBLIC "-//W3C//DTD SVG 1.1//EN" "http://www.w3.org/Graphics/SVG/1.1/DTD/svg11.dtd">
<svg version="1.1" id="Capa_1" xmlns="http://www.w3.org/2000/svg" xmlns:xlink="http://www.w3.org/1999/xlink" x="0px" y="0px"
	 width="600px" height="600px" viewBox="0 0 600 600" enable-background="new 0 0 600 600" xml:space="preserve">
<g id="Capa_2">
</g>
<ellipse fill="#FFD21E" cx="300" cy="300" rx="299.5" ry="300"/>
<path fill="none" stroke="#FFFFFF" stroke-width="16" d="M213.5,211.5"/>
<path fill="none" stroke="#FFFFFF" stroke-width="30" d="M474.088,434.744c0,7.77-6.299,14.067-14.068,14.067H139.98
	c-7.77,0-14.068-12.16-14.068-19.929v-167.64c0-7.77,18.021-31.653,25.791-31.653H444.78c7.769,0,29.308,19.194,29.308,26.963
	V434.744z"/>
<path fill="none" stroke="#FFFFFF" stroke-width="30" d="M182.5,202.5c0-39.555,50.544-79,117.5-79c83.97,0,116.5,55.175,116.5,88
	c0,23.632-67.521,18.09-125.873,18.09C232.275,229.59,182.5,226.131,182.5,202.5z"/>
</svg>
